<svg width="34" height="33" viewBox="0 0 34 33" fill="none" xmlns="http://www.w3.org/2000/svg">
<path d="M16.7747 7.96156C12.0566 7.96156 8.251 11.6222 8.251 16.1605C8.251 20.6988 12.0566 24.3594 16.7747 24.3594C21.4929 24.3594 25.2985 20.6988 25.2985 16.1605C25.2985 11.6222 21.4929 7.96156 16.7747 7.96156ZM16.7747 21.4909C13.7258 21.4909 11.2332 19.1004 11.2332 16.1605C11.2332 13.2206 13.7184 10.8301 16.7747 10.8301C19.8311 10.8301 22.3163 13.2206 22.3163 16.1605C22.3163 19.1004 19.8237 21.4909 16.7747 21.4909ZM27.6353 7.62618C27.6353 8.6894 26.7451 9.53855 25.6472 9.53855C24.5418 9.53855 23.659 8.68227 23.659 7.62618C23.659 6.57009 24.5492 5.71381 25.6472 5.71381C26.7451 5.71381 27.6353 6.57009 27.6353 7.62618ZM33.2807 9.56709C33.1546 7.00537 32.5463 4.73622 30.5952 2.86666C28.6516 0.997101 26.2926 0.411973 23.6294 0.28353C20.8845 0.13368 12.6575 0.13368 9.91272 0.28353C7.25693 0.404837 4.89788 0.989966 2.94684 2.85952C0.995794 4.72908 0.394903 6.99824 0.261371 9.55996C0.105585 12.2002 0.105585 20.1137 0.261371 22.7539C0.387484 25.3156 0.995794 27.5848 2.94684 29.4543C4.89788 31.3239 7.24951 31.909 9.91272 32.0375C12.6575 32.1873 20.8845 32.1873 23.6294 32.0375C26.2926 31.9161 28.6516 31.331 30.5952 29.4543C32.5389 27.5848 33.1472 25.3156 33.2807 22.7539C33.4365 20.1137 33.4365 12.2073 33.2807 9.56709ZM29.7347 25.5868C29.1561 26.9854 28.0359 28.0629 26.5745 28.6266C24.386 29.4615 19.1931 29.2688 16.7747 29.2688C14.3563 29.2688 9.15604 29.4543 6.97503 28.6266C5.52102 28.07 4.40084 26.9925 3.81479 25.5868C2.94684 23.4817 3.14713 18.4867 3.14713 16.1605C3.14713 13.8343 2.95425 8.83212 3.81479 6.73422C4.39342 5.33562 5.5136 4.25812 6.97503 3.6944C9.16346 2.85952 14.3563 3.05219 16.7747 3.05219C19.1931 3.05219 24.3935 2.86666 26.5745 3.6944C28.0285 4.25099 29.1487 5.32848 29.7347 6.73422C30.6027 8.83925 30.4024 13.8343 30.4024 16.1605C30.4024 18.4867 30.6027 23.4889 29.7347 25.5868Z" fill="white"/>
</svg>
