<svg width="32" height="31" viewBox="0 0 32 31" fill="none" xmlns="http://www.w3.org/2000/svg">
<path d="M7.31258 30.5883H0.718258V10.1661H7.31258V30.5883ZM4.01187 7.38028C1.90322 7.38028 0.192871 5.70062 0.192871 3.67273C0.192871 2.69866 0.595229 1.76449 1.31143 1.07572C2.02763 0.386947 2.99901 0 4.01187 0C5.02473 0 5.99611 0.386947 6.71231 1.07572C7.42851 1.76449 7.83087 2.69866 7.83087 3.67273C7.83087 5.70062 6.11981 7.38028 4.01187 7.38028ZM31.993 30.5883H25.4129V20.6469C25.4129 18.2776 25.3632 15.2392 21.9844 15.2392C18.5559 15.2392 18.0305 17.8133 18.0305 20.4762V30.5883H11.4433V10.1661H17.7678V12.9519H17.8601C18.7405 11.3473 20.891 9.65397 24.0994 9.65397C30.7732 9.65397 32.0001 13.8804 32.0001 19.3701V30.5883H31.993Z" fill="white"/>
</svg>
